<svg width="79" height="16" viewBox="0 0 79 16" fill="none" xmlns="http://www.w3.org/2000/svg">
<mask id="mask0_312_190" style="mask-type:luminance" maskUnits="userSpaceOnUse" x="66" y="0" width="13" height="16">
<path d="M66.2173 0H78.8447V15.94H66.2173V0Z" fill="white"/>
</mask>
<g mask="url(#mask0_312_190)">
<path d="M78.7382 2.90303C78.8875 2.90303 78.9622 2.82837 78.9622 2.67906V1.10383C78.9622 0.55245 78.4332 0 77.8562 0H66.4414C67.0195 0 67.5474 0.55245 67.5474 1.10383V2.67906C67.5474 2.82837 67.622 2.90303 67.7713 2.90303H70.5293C71.1074 2.90303 71.6353 3.45548 71.6353 4.009V15.7907C71.6353 15.94 71.7099 16.0147 71.8582 16.0147H74.6503C74.7996 16.0147 74.8743 15.94 74.8743 15.7907V4.009C74.8743 3.45548 74.3463 2.90303 73.7683 2.90303C75.3073 2.90303 76.8398 2.90303 78.7382 2.90303Z" fill="#003459"/>
</g>
<mask id="mask1_312_190" style="mask-type:luminance" maskUnits="userSpaceOnUse" x="51" y="0" width="16" height="16">
<path d="M51.9878 0H66.4581V15.94H51.9878V0Z" fill="white"/>
</mask>
<g mask="url(#mask1_312_190)">
<path d="M52.1104 8.12998C52.1104 9.00878 52.1189 9.32233 52.1327 9.9633C52.1487 10.6021 52.1935 11.1237 52.2682 11.5247C52.3876 12.107 52.5146 12.6285 52.6479 13.0892C52.7812 13.5521 52.9614 13.9307 53.1843 14.2293C53.4808 14.6154 53.8552 14.9556 54.2999 15.2446C54.7468 15.5358 55.2256 15.7416 55.7311 15.8589C56.0874 15.9336 56.5566 15.9784 57.1368 15.9944C57.7191 16.0072 58.4102 16.0147 59.2133 16.0147C60.0196 16.0147 60.7128 16.0072 61.2919 15.9944C61.8721 15.9784 62.3424 15.9336 62.6986 15.8589C63.2063 15.7416 63.683 15.5358 64.1299 15.2446C64.5767 14.9556 64.9468 14.6154 65.2465 14.2293C65.4705 13.9307 65.6464 13.5521 65.7819 13.0892C65.9152 12.6285 66.0411 12.107 66.1616 11.5247C66.2352 11.1237 66.281 10.6021 66.2938 9.9633C66.3098 9.32233 66.3173 9.00878 66.3173 8.12998V7.99453C66.3173 7.1168 66.3098 6.69233 66.2938 6.05349C66.281 5.41252 66.2352 4.891 66.1616 4.48892C66.0411 3.90661 65.9152 3.38616 65.7819 2.92543C65.6464 2.46256 65.4705 2.08289 65.2465 1.78533C64.9468 1.39926 64.5746 1.06117 64.1299 0.770017C63.683 0.480994 63.2063 0.275159 62.6986 0.15571C62.3424 0.0810546 61.8721 0.0362613 61.2919 0.0202636C60.7128 0.0063991 60.0196 0 59.2133 0C58.4102 0 57.7191 0.0063991 57.1368 0.0202636C56.5566 0.0362613 56.0874 0.0810546 55.7311 0.15571C55.2256 0.275159 54.7468 0.480994 54.2999 0.770017C53.8552 1.05904 53.4808 1.39926 53.1843 1.78533C52.9614 2.08289 52.7812 2.46256 52.6479 2.92543C52.5146 3.38616 52.3876 3.90661 52.2682 4.48892C52.1935 4.891 52.1487 5.41252 52.1327 6.05349C52.1189 6.69233 52.1104 7.1168 52.1104 7.99453V8.12998ZM59.2133 3.08114C59.6761 3.08114 60.1166 3.0918 60.5315 3.11526C60.9496 3.13766 61.3058 3.18459 61.6044 3.25924C62.1408 3.39469 62.5205 3.65918 62.7434 4.05379C62.9674 4.44626 63.0783 5.04031 63.0783 5.83059V10.1841C63.0783 10.9743 62.9674 11.5684 62.7434 11.9609C62.5205 12.3555 62.1408 12.62 61.6044 12.7554C61.3058 12.8301 60.9496 12.877 60.5315 12.8994C60.1166 12.9218 59.6761 12.9335 59.2133 12.9335C58.7536 12.9335 58.3132 12.9218 57.8972 12.8994C57.4802 12.877 57.1229 12.8301 56.8254 12.7554C56.2879 12.62 55.9092 12.3555 55.6853 11.9609C55.4624 11.5684 55.3493 10.9743 55.3493 10.1841V5.83059C55.3493 5.04031 55.4624 4.44626 55.6853 4.05379C55.9092 3.65918 56.2879 3.39469 56.8254 3.25924C57.1229 3.18459 57.4802 3.13766 57.8972 3.11526C58.3132 3.0918 58.7536 3.08114 59.2133 3.08114Z" fill="#003459"/>
</g>
<mask id="mask2_312_190" style="mask-type:luminance" maskUnits="userSpaceOnUse" x="36" y="0" width="15" height="16">
<path d="M36.9717 0H50.6166V15.94H36.9717V0Z" fill="white"/>
</mask>
<g mask="url(#mask2_312_190)">
<path d="M38.3015 0H46.3483C46.8847 0 47.3796 0.0885199 47.835 0.266627C48.2893 0.446866 48.6839 0.703894 49.0177 1.03878C49.3547 1.37259 49.616 1.77893 49.8101 2.25459C50.0042 2.73132 50.1013 3.26884 50.1013 3.86395C50.1013 4.6681 50.0341 5.3048 49.9008 5.77406C49.7653 6.24333 49.6139 6.59954 49.4422 6.8459C49.2716 7.09227 49.118 7.25437 48.9847 7.33756C48.8513 7.41968 48.7831 7.48261 48.7831 7.5274C48.7831 7.60206 48.8983 7.75777 49.1308 7.99453C49.3611 8.23449 49.616 8.50965 49.9008 8.8232C50.0042 8.95652 50.097 9.11223 50.1781 9.29247C50.2623 9.47057 50.3317 9.65401 50.3925 9.83852C50.4511 10.0241 50.4927 10.2118 50.5151 10.3963C50.5375 10.584 50.5482 10.744 50.5482 10.8773C50.5482 11.5929 50.481 12.2627 50.3477 12.8887C50.2122 13.5137 49.9776 14.0576 49.6438 14.5183C49.3099 14.9812 48.8652 15.3438 48.3138 15.6126C47.7635 15.8813 47.0639 16.0147 46.2149 16.0147H38.3079C38.1586 16.0147 38.085 15.94 38.085 15.7907V1.10383C38.085 0.55245 37.556 0 36.979 0H38.3015ZM41.3239 12.8887C41.3239 13.037 41.3986 13.1116 41.5468 13.1116H46.2597C46.5125 13.1116 46.7205 13.0444 46.8847 12.9111C47.0479 12.7757 47.1833 12.6082 47.2868 12.4077C47.3913 12.2062 47.4606 11.995 47.499 11.771C47.5374 11.5471 47.5555 11.353 47.5555 11.1908C47.5555 10.8474 47.515 10.5616 47.4318 10.3312C47.3497 10.1009 47.2463 9.91531 47.1204 9.78199C46.9935 9.64975 46.8517 9.55696 46.6959 9.50257C46.5381 9.45031 46.3931 9.42578 46.2597 9.42578C44.0617 9.42578 42.03 9.42578 40.218 9.42578C40.795 9.42578 41.3239 9.9793 41.3239 10.5296V12.8887ZM41.3239 6.1868C41.3239 6.33611 41.3986 6.41077 41.5468 6.41077H45.4108C46.007 6.41077 46.4293 6.27959 46.6842 6.01936C46.937 5.7602 47.0639 5.28667 47.0639 4.59984C47.0639 3.961 46.8986 3.51627 46.5712 3.27311C46.2437 3.02674 45.8587 2.90303 45.4108 2.90303C43.4516 2.90303 41.8113 2.90303 40.218 2.90303C40.795 2.90303 41.3239 3.45548 41.3239 4.009V6.1868Z" fill="#003459"/>
</g>
<mask id="mask3_312_190" style="mask-type:luminance" maskUnits="userSpaceOnUse" x="5" y="0" width="13" height="16">
<path d="M5.84668 0H17.1026V15.94H5.84668V0Z" fill="white"/>
</mask>
<g mask="url(#mask3_312_190)">
<path d="M6.09814 11.2335C6.09814 11.6377 6.13441 11.9769 6.20906 12.252C6.28372 12.5272 6.35731 12.7458 6.43196 12.9111C6.71672 13.566 7.0804 14.128 7.52726 14.5973C7.97413 15.0665 8.47965 15.4046 9.04597 15.6126C9.29873 15.716 9.59735 15.811 9.9397 15.8931C10.281 15.9741 10.6756 16.0147 11.1225 16.0147H16.8421C16.9914 16.0147 17.0661 15.94 17.0661 15.7907V14.2155C17.0661 13.663 16.5371 13.1116 15.9601 13.1116H11.0574C10.5337 13.0668 10.1295 12.8909 9.83838 12.5858C9.54936 12.2808 9.37978 11.8681 9.33499 11.3466V5.69514C9.33499 4.92086 9.47684 4.29055 9.76159 3.80743C10.0442 3.3243 10.4751 3.02248 11.0574 2.90303H16.8421C16.9914 2.90303 17.0661 2.82837 17.0661 2.67906V1.10383C17.0661 0.55245 16.5371 0 15.9601 0H10.922C10.1925 0 9.50883 0.149311 8.86786 0.446866C8.22689 0.744421 7.67551 1.16036 7.21584 1.69788C7.05053 1.88878 6.89056 2.10315 6.73485 2.33352C6.57701 2.56388 6.45436 2.84437 6.36477 3.17179C6.18666 3.7381 6.09814 4.34068 6.09814 4.98165V11.2335Z" fill="#003459"/>
</g>
<mask id="mask4_312_190" style="mask-type:luminance" maskUnits="userSpaceOnUse" x="17" y="0" width="15" height="16">
<path d="M17.6797 0H31.2382V15.94H17.6797V0Z" fill="white"/>
</mask>
<g mask="url(#mask4_312_190)">
<path d="M27.8757 0H30.0109C30.5868 0 31.1147 0.55245 31.1147 1.10383V15.7907C31.1147 15.94 31.04 16.0147 30.8918 16.0147H28.0997C27.9504 16.0147 27.8757 15.94 27.8757 15.7907V9.64975C27.8757 9.50044 27.8011 9.42578 27.6528 9.42578H22.3597C22.2104 9.42578 22.1358 9.50044 22.1358 9.64975V15.7907C22.1358 15.94 22.0611 16.0147 21.9129 16.0147H19.1208C18.9715 16.0147 18.8968 15.94 18.8968 15.7907V1.10383C18.8968 0.55245 18.3689 0 17.793 0H21.0319C21.6079 0 22.1358 0.55245 22.1358 1.10383V5.41678C22.1358 5.9703 21.6079 6.52275 21.0298 6.52275C22.9986 6.52275 25.2894 6.52275 27.6528 6.52275C27.8011 6.52275 27.8757 6.44596 27.8757 6.29772V1.10383C27.8757 0.55245 27.3478 0 26.7719 0H27.8757Z" fill="#003459"/>
</g>
<mask id="mask5_312_190" style="mask-type:luminance" maskUnits="userSpaceOnUse" x="31" y="0" width="6" height="16">
<path d="M31.7842 0H36.4256V15.94H31.7842V0Z" fill="white"/>
</mask>
<g mask="url(#mask5_312_190)">
<path d="M32.9702 0H35.1032C35.6813 0 36.2092 0.55245 36.2092 1.10383V15.7907C36.2092 15.94 36.1324 16.0147 35.9852 16.0147H33.1931C33.0449 16.0147 32.9702 15.94 32.9702 15.7907V1.10383C32.9702 0.55245 32.4423 0 31.8643 0H32.9702Z" fill="#003459"/>
</g>
<mask id="mask6_312_190" style="mask-type:luminance" maskUnits="userSpaceOnUse" x="0" y="0" width="5" height="16">
<path d="M0 0H4.38974V15.94H0V0Z" fill="white"/>
</mask>
<g mask="url(#mask6_312_190)">
<path d="M1.11671 1.10383V15.7907C1.11671 15.94 1.19136 16.0147 1.34068 16.0147H4.13279C4.28103 16.0147 4.35569 15.94 4.35569 15.7907V1.10383C4.35569 0.55245 3.82777 0 3.24972 0H0.0107422C0.588789 0 1.11671 0.55245 1.11671 1.10383Z" fill="#003459"/>
</g>
</svg>
