<svg width="451" height="316" viewBox="0 0 451 316" fill="none" xmlns="http://www.w3.org/2000/svg">
<style>
  @media (prefers-color-scheme: dark) {
    path {
      fill: #ffffff !important;
      stroke: #ffffff !important;
    }
  }
</style>
<path fill-rule="evenodd" clip-rule="evenodd" d="M366.843 88.8099C550.733 -4.43351 373.011 82.3645 377.41 116.951C396.679 188.347 363.308 265.651 294.375 299.272C225.474 332.881 144.058 311.605 99.6506 252.523L155.268 225.396C183.776 254.977 229.144 264.301 268.062 245.318C307.083 226.286 327.684 184.623 321.766 143.841C318.579 114.279 147.723 198.216 312.893 115.123L366.848 88.8099H366.843Z" fill="#003459" stroke="#332C2B" stroke-width="0.755959" stroke-miterlimit="22.9256"/>
<path fill-rule="evenodd" clip-rule="evenodd" d="M83.9126 226.804C-99.9773 320.048 77.7444 233.25 73.3461 198.663C54.0771 127.268 87.4482 49.9633 156.381 16.3419C225.282 -17.2662 306.698 4.00985 351.105 63.091L295.488 90.2179C266.98 60.6371 221.612 51.3132 182.694 70.2962C143.673 89.3284 123.072 130.991 128.99 171.773C132.177 201.336 303.033 117.398 137.862 200.491L83.9082 226.804H83.9126Z" fill="#003459" stroke="#332C2B" stroke-width="0.755959" stroke-miterlimit="22.9256"/>
</svg>
